<?xml version="1.0" standalone="no"?>
<!DOCTYPE svg PUBLIC "-//W3C//DTD SVG 20010904//EN"
 "http://www.w3.org/TR/2001/REC-SVG-20010904/DTD/svg10.dtd">
<svg version="1.0" xmlns="http://www.w3.org/2000/svg"
 width="32.000000pt" height="32.000000pt" viewBox="0 0 32.000000 32.000000"
 preserveAspectRatio="xMidYMid meet">

<g transform="translate(0.000000,32.000000) scale(0.100000,-0.100000)"
fill="#000000" stroke="none">
<path d="M12 308 c-18 -18 -14 -46 7 -58 38 -20 71 13 51 51 -12 21 -40 25
-58 7z"/>
<path d="M202 204 c-12 -8 -22 -10 -22 -5 0 6 -16 11 -35 11 l-35 0 0 -105 0
-105 35 0 34 0 3 71 c3 75 17 99 52 86 13 -5 16 -21 16 -82 l0 -75 35 0 35 0
0 85 c0 78 -2 88 -25 110 -28 29 -61 32 -93 9z"/>
<path d="M10 105 l0 -105 30 0 30 0 0 105 0 105 -30 0 -30 0 0 -105z"/>
</g>
</svg>
